<svg width="213" height="72" viewBox="0 0 213 72" fill="none" xmlns="http://www.w3.org/2000/svg">
<g clip-path="url(#clip0_325_1506)">
<path d="M37.8337 21.4411C37.3143 20.6868 37.5039 19.6549 38.2574 19.1354C39.0109 18.615 40.0437 18.8048 40.563 19.559C41.0843 20.3128 40.8947 21.3447 40.1394 21.8647C39.386 22.3843 38.3532 22.1945 37.8337 21.4411Z" fill="#323242"/>
<path d="M21.4251 32.7554C20.9055 32.0021 21.0953 30.9693 21.8487 30.4498C22.6031 29.9295 23.6351 30.1192 24.1553 30.8736C24.6756 31.6272 24.4859 32.6599 23.7316 33.1793C22.9772 33.6995 21.9453 33.5099 21.4251 32.7554Z" fill="#323242"/>
<path d="M35.7106 32.9957C36.4641 32.4754 37.4969 32.6651 38.0162 33.4194C38.5375 34.1731 38.3477 35.2059 37.5926 35.7251C36.839 36.2455 35.8062 36.0557 35.2869 35.3015C34.7674 34.548 34.9571 33.5153 35.7106 32.9957Z" fill="#323242"/>
<path d="M24.3957 16.5874C25.1501 16.0672 26.1821 16.2569 26.7023 17.0113C27.2226 17.7648 27.0329 18.7976 26.2786 19.317C25.5242 19.8372 24.4923 19.6476 23.9721 18.8932C23.4525 18.1398 23.6423 17.107 24.3957 16.5874Z" fill="#323242"/>
<path d="M39.1655 27.6583C39.331 26.7577 40.1959 26.162 41.0957 26.3274C41.9964 26.4929 42.5931 27.3571 42.4276 28.2577C42.2621 29.1584 41.3972 29.7541 40.4965 29.5886C39.5967 29.4232 39 28.559 39.1655 27.6583Z" fill="#323242"/>
<path d="M19.5624 24.0558C19.7279 23.1551 20.5928 22.5595 21.4926 22.7248C22.3933 22.8903 22.99 23.7545 22.8245 24.6552C22.659 25.5559 21.794 26.1515 20.8933 25.986C19.9935 25.8207 19.3969 24.9565 19.5624 24.0558Z" fill="#323242"/>
<path d="M29.4934 34.3274C30.394 34.4929 30.9898 35.357 30.8244 36.2577C30.6589 37.1584 29.7948 37.7542 28.8941 37.5887C27.9934 37.4232 27.3976 36.5591 27.5631 35.6584C27.7286 34.7578 28.5927 34.1619 29.4934 34.3274Z" fill="#323242"/>
<path d="M33.0954 14.7249C33.9961 14.8904 34.5919 15.7545 34.4264 16.6551C34.2609 17.5558 33.3968 18.1516 32.4962 17.9861C31.5955 17.8206 30.9997 16.9566 31.1652 16.0559C31.3307 15.1552 32.1947 14.5594 33.0954 14.7249Z" fill="#323242"/>
<path d="M34.4685 9.01451C34.447 9.01056 34.4241 9.00542 34.4026 9.00148C33.2109 8.76475 32.1825 8.07835 31.507 7.06837C30.8325 6.0586 30.5906 4.84631 30.8264 3.65441C31.064 2.46284 31.7506 1.4336 32.7604 0.758989C33.7703 0.0835959 34.9775 -0.135309 36.175 0.0793833C38.6347 0.567706 40.2387 2.96665 39.7504 5.42629C39.5128 6.61786 38.8272 7.64642 37.8173 8.32187C36.8248 8.98456 35.6385 9.22949 34.4685 9.01451ZM35.7905 1.80081C35.0742 1.66919 34.3479 1.81949 33.7404 2.22485C33.1225 2.63895 32.7019 3.26838 32.5573 3.9973C32.4126 4.72706 32.5607 5.46988 32.9737 6.08846C33.387 6.70621 34.0164 7.1269 34.7462 7.27166C35.4818 7.42809 36.2169 7.26874 36.8365 6.85501C37.4551 6.44196 37.8751 5.81149 38.0197 5.08256C38.3194 3.57697 37.3381 2.10823 35.8315 1.80926C35.8179 1.80585 35.8051 1.80348 35.7905 1.80081Z" fill="#323242"/>
<path d="M51.7893 34.9241L51.725 34.9122C50.5325 34.6745 49.504 33.9889 48.8295 32.9782C48.1541 31.9683 47.9131 30.7562 48.1489 29.5643C48.6341 27.1263 50.9956 25.5287 53.4334 25.9766C53.454 25.9804 53.4761 25.9853 53.4975 25.9893C55.9563 26.4774 57.5612 28.8765 57.0727 31.3371C56.5883 33.7752 54.2262 35.3718 51.7893 34.9241ZM53.1147 27.711C51.6221 27.4367 50.1761 28.4151 49.8798 29.9072C49.7342 30.6368 49.8824 31.3796 50.2956 31.9973C50.7095 32.6161 51.3398 33.0369 52.0687 33.1815C53.5989 33.4777 55.044 32.4992 55.342 30.9933C55.6419 29.4868 54.6597 28.018 53.1541 27.7182L53.1147 27.711Z" fill="#323242"/>
<path d="M8.55766 26.3363C8.53622 26.3324 8.51407 26.3275 8.49261 26.3235C7.30004 26.0866 6.2725 25.4004 5.59721 24.3896C4.92176 23.3796 4.68071 22.1675 4.91642 20.9764C5.15399 19.7849 5.83955 18.7563 6.85037 18.081C7.85948 17.4055 9.06722 17.1689 10.2642 17.4013C11.4561 17.6371 12.4843 18.3244 13.159 19.3334C13.8343 20.3442 14.0754 21.5563 13.8395 22.7482C13.6028 23.9399 12.9164 24.9683 11.9064 25.6437C10.9147 26.3066 9.72852 26.5515 8.55766 26.3363ZM9.87961 19.1227C9.16335 18.9911 8.43786 19.1415 7.83027 19.5478C7.21255 19.961 6.79187 20.5904 6.64714 21.3202C6.5017 22.0489 6.64913 22.7908 7.06304 23.4095C7.47711 24.0274 8.10657 24.4481 8.83533 24.5935C9.56177 24.7421 10.3078 24.5909 10.9265 24.177C11.5442 23.7638 11.9649 23.1344 12.1088 22.4044C12.2544 21.6748 12.1071 20.9322 11.693 20.3143C11.2791 19.6955 10.6513 19.276 9.92062 19.1311C9.90704 19.1277 9.89419 19.1254 9.87961 19.1227Z" fill="#323242"/>
<path d="M48.4954 18.3824C48.474 18.3785 48.4517 18.3744 48.4296 18.3694C47.2378 18.1327 46.2094 17.4463 45.535 16.4356C44.8596 15.4256 44.6185 14.2136 44.8544 13.0217C45.0919 11.8301 45.7784 10.8017 46.7883 10.1262C47.7799 9.46423 48.9661 9.21934 50.1361 9.43433L50.2021 9.44647C51.3939 9.6832 52.4221 10.3705 53.0975 11.3804C54.4915 13.465 53.929 16.295 51.8452 17.6891C50.8525 18.3526 49.6663 18.5976 48.4954 18.3824ZM49.8183 11.1689C49.1011 11.0371 48.3749 11.1866 47.7684 11.5921C47.1495 12.0069 46.7298 12.6356 46.5851 13.3654C46.4404 14.0951 46.5878 14.837 47.0017 15.4557C47.4148 16.0743 48.0442 16.495 48.774 16.6397L48.8143 16.6471C49.5305 16.7788 50.2567 16.6293 50.8643 16.2231C52.1402 15.3695 52.4853 13.6364 51.6308 12.3603C51.2178 11.7417 50.5884 11.3211 49.8586 11.1763C49.8586 11.1763 49.8183 11.1689 49.8183 11.1689Z" fill="#323242"/>
<path d="M11.8527 42.8788L11.7866 42.8667C10.5957 42.6301 9.56663 41.9427 8.89276 40.9339C8.2166 39.9229 7.97557 38.7108 8.21228 37.5191C8.44901 36.3273 9.13541 35.2989 10.1452 34.6243C11.1543 33.9488 12.3373 33.7068 13.559 33.9446C14.7518 34.1806 15.7793 34.8669 16.4546 35.8777C17.8486 37.9623 17.286 40.7922 15.2023 42.1864C14.2097 42.849 13.0235 43.0939 11.8527 42.8788ZM13.1762 35.6663C12.4591 35.5345 11.7328 35.684 11.1253 36.0902C10.5066 36.5041 10.0869 37.1328 9.94213 37.8626C9.7974 38.5924 9.9447 39.3351 10.3581 39.952L10.3588 39.953C10.7718 40.5715 11.4012 40.9922 12.131 41.137L12.1713 41.1444C12.8876 41.276 13.614 41.1257 14.2214 40.7204C15.4973 39.8668 15.8415 38.1335 14.988 36.8567C14.5748 36.239 13.9453 35.8192 13.2156 35.6736C13.2156 35.6736 13.1762 35.6663 13.1762 35.6663Z" fill="#323242"/>
<path d="M42.4225 48.9504C41.2551 48.7359 40.1728 48.0679 39.4625 47.0063C38.7872 45.9955 38.5453 44.7832 38.7829 43.5917C39.0185 42.4007 39.7058 41.3724 40.7158 40.697C41.7257 40.0215 42.9444 39.7693 44.1296 40.0172C45.3215 40.253 46.3489 40.9402 47.0252 41.9503C47.6997 42.9601 47.9416 44.1724 47.7049 45.3641C47.4682 46.5558 46.7809 47.5841 45.7701 48.2594C44.7488 48.9433 43.5462 49.1569 42.4225 48.9504ZM43.7459 41.7388C43.0296 41.6072 42.3033 41.7575 41.6967 42.163L41.6957 42.1637C41.078 42.5769 40.6573 43.2063 40.5117 43.936C40.3679 44.665 40.5152 45.4077 40.9292 46.0264C41.7813 47.3003 43.5145 47.6453 44.7909 46.7937C45.4097 46.3798 45.8293 45.751 45.9751 45.0205C46.1198 44.2907 45.9715 43.5488 45.5591 42.9312C45.1445 42.3115 44.5158 41.8918 43.787 41.7463L43.7459 41.7388Z" fill="#323242"/>
<path d="M17.9249 12.3063C16.7574 12.0918 15.6741 11.4246 14.9647 10.3631C14.2894 9.35231 14.0475 8.14007 14.2842 6.94833C14.5217 5.75676 15.2082 4.72836 16.218 4.05375C17.2097 3.39091 18.3959 3.14602 19.5668 3.36117C19.5882 3.36511 19.6105 3.3692 19.6327 3.37414C20.8245 3.61003 21.8519 4.29717 22.5273 5.30709C23.2028 6.31707 23.4438 7.52916 23.2071 8.72089C22.9704 9.91262 22.2841 10.9402 21.274 11.6165C20.251 12.3002 19.0486 12.5128 17.9249 12.3063ZM19.2481 5.09556C18.5318 4.96395 17.8056 5.11341 17.198 5.51961C16.5793 5.93355 16.1588 6.56208 16.0149 7.29206C15.8693 8.02166 16.0174 8.76448 16.4305 9.38307C17.2842 10.6582 19.0167 11.0022 20.2943 10.1489C20.9129 9.73583 21.3325 9.10713 21.4773 8.37732C21.622 7.64756 21.4746 6.90573 21.0615 6.28715C20.6476 5.66842 20.018 5.24857 19.2884 5.10297C19.2884 5.10297 19.2481 5.09556 19.2481 5.09556Z" fill="#323242"/>
<path d="M41.5731 53.3827H41.5653C40.9496 53.3827 40.4457 53.8825 40.4404 54.5009L40.3501 68.6764L23.8288 56.6811C23.566 56.488 23.2333 56.4186 22.916 56.4937L3.05346 61.0369L8.77737 47.9632C9.02612 47.3945 8.76595 46.7294 8.19544 46.4797C7.62683 46.2366 6.96262 46.4973 6.71577 47.0604L0.0957882 62.1808C-0.0761502 62.5727 -0.0136055 63.0207 0.259165 63.3503C0.422543 63.5468 0.650129 63.6833 0.900308 63.7342C1.05869 63.7675 1.21921 63.7651 1.37665 63.7285L22.9194 58.8005L40.8002 71.7846C40.9964 71.9273 41.2274 72.0001 41.4602 72.0001C41.6335 72.0001 41.8079 71.9596 41.9698 71.8783C42.3482 71.6871 42.5848 71.3047 42.5872 70.8809L42.692 54.5156C42.6954 53.8968 42.1938 53.3889 41.5731 53.3827Z" fill="#2564BF"/>
<path d="M71.3959 23.5322H76.7725C81.1486 23.5322 84.6497 27.0333 84.6497 31.4094C84.6497 35.7858 81.1486 39.2867 76.7725 39.2867H71.3959C71.3959 39.2867 71.3959 23.5322 71.3959 23.5322ZM76.7725 35.7858C79.1481 35.7858 81.0236 33.9103 81.0236 31.4094C81.0236 28.9089 79.1481 27.0333 76.7725 27.0333H75.022V35.7858H76.7725Z" fill="#2564BF"/>
<path d="M88.5251 22.7822C89.5254 22.7822 90.4006 23.6575 90.4006 24.6578C90.4006 25.6581 89.5254 26.5333 88.5251 26.5333C87.5248 26.5333 86.6495 25.6581 86.6495 24.6578C86.6495 23.6575 87.5248 22.7822 88.5251 22.7822ZM90.1506 39.2869H86.7745V27.7839H90.1506V39.2869Z" fill="#2564BF"/>
<path d="M100.903 28.9087L101.403 27.7835H103.904V38.2863C103.904 41.2871 101.653 43.5376 98.1525 43.5376C93.9012 43.5376 92.7759 39.6615 92.7759 39.6615L96.152 39.4115C96.152 39.4115 96.652 40.5368 98.1525 40.5368C99.5278 40.5368 100.528 39.5365 100.528 38.2863V37.661C100.528 37.661 99.6528 38.6613 97.6523 38.6613C94.7764 38.6613 92.4009 36.2857 92.4009 33.1599C92.4009 30.034 94.7764 27.6582 97.6523 27.6582C99.6528 27.6582 100.903 28.9087 100.903 28.9087ZM98.1525 35.5354C99.5278 35.5354 100.528 34.5351 100.528 33.1599C100.528 31.7846 99.5278 30.784 98.1525 30.784C96.777 30.784 95.7767 31.7846 95.7767 33.1599C95.7767 34.5351 96.777 35.5354 98.1525 35.5354Z" fill="#3465AF"/>
<path d="M108.279 22.7822C109.28 22.7822 110.155 23.6575 110.155 24.6578C110.155 25.6581 109.28 26.5333 108.279 26.5333C107.279 26.5333 106.404 25.6581 106.404 24.6578C106.404 23.6575 107.279 22.7822 108.279 22.7822ZM109.905 39.2869H106.529V27.7839H109.905V39.2869Z" fill="#2564BF"/>
<path d="M113.656 30.9099H111.905V28.034H112.78C113.656 28.034 114.156 27.5338 114.156 26.6585V25.0332H117.032V27.784H119.407V30.9099H117.032V34.6607C117.032 35.661 117.657 36.2863 118.532 36.2863C119.032 36.2863 119.407 36.1613 119.407 36.1613V39.1621C119.407 39.1621 118.732 39.4121 117.782 39.4121C115.156 39.4121 113.656 37.9118 113.656 35.161C113.656 35.161 113.656 30.9099 113.656 30.9099Z" fill="#2564BF"/>
<path d="M131.285 32.2846V39.2865H128.785L128.284 38.1612C128.284 38.1612 126.909 39.4115 124.909 39.4115C122.408 39.4115 121.032 38.0362 121.032 36.1607C121.032 33.9101 122.658 32.2846 127.909 32.2846C127.909 31.1593 127.284 30.534 126.409 30.534C125.159 30.534 124.909 31.6593 124.909 31.6593L121.532 31.4093C121.908 29.1587 123.533 27.5332 126.534 27.5332C129.285 27.5332 131.285 29.5338 131.285 32.2846ZM127.909 34.7852V34.2851C125.034 34.2851 124.408 34.9104 124.408 35.7857C124.408 36.4107 124.909 36.911 125.784 36.911C127.034 36.911 127.909 36.0357 127.909 34.7852Z" fill="#3465AF"/>
<path d="M137.036 39.2867H133.66V23.5322H137.036V39.2867Z" fill="#2564BF"/>
<path d="M152.414 39.2867H148.788V27.0333H144.287V23.5322H156.915V27.0333H152.414V39.2867Z" fill="#2564BF"/>
<path d="M164.542 27.7835V31.2843C164.542 31.2843 164.042 31.0343 163.292 31.0343C162.042 31.0343 161.166 31.9096 161.166 33.4099V39.2865H157.79V27.7835H160.291L160.791 29.0337C160.791 29.0337 161.791 27.6582 163.542 27.6582C164.167 27.6582 164.542 27.7835 164.542 27.7835Z" fill="#3465AF"/>
<path d="M166.167 34.5359V27.7842H169.543V33.9108C169.543 35.4111 170.418 36.2864 171.669 36.2864C172.919 36.2864 173.794 35.4111 173.794 33.9108V27.7842H177.17V39.2872H174.67L174.169 38.162C174.169 38.162 172.794 39.4122 170.794 39.4122C168.043 39.4122 166.167 37.5367 166.167 34.5359Z" fill="#3465AF"/>
<path d="M182.421 35.5354C182.546 36.2857 183.046 36.7857 183.921 36.7857C184.796 36.7857 185.297 36.2857 185.297 35.7857C185.297 34.5351 179.42 35.1604 179.42 31.0343C179.42 29.1587 181.046 27.5332 183.796 27.5332C186.797 27.5332 188.298 29.0337 188.673 31.0343L185.422 31.2843C185.297 30.784 184.796 30.284 184.046 30.284C183.296 30.284 182.921 30.659 182.921 31.1593C182.921 32.4096 188.798 31.7846 188.798 35.9107C188.798 37.7862 187.047 39.5365 184.171 39.5365C181.046 39.5365 179.545 38.0362 179.17 35.7857L182.421 35.5354Z" fill="#3465AF"/>
<path d="M191.798 30.9099H190.047V28.034H190.922C191.798 28.034 192.298 27.5338 192.298 26.6585V25.0332H195.174V27.784H197.549V30.9099H195.174V34.6607C195.174 35.661 195.799 36.2863 196.674 36.2863C197.174 36.2863 197.549 36.1613 197.549 36.1613V39.1621C197.549 39.1621 196.874 39.4121 195.924 39.4121C193.298 39.4121 191.798 37.9118 191.798 35.161C191.798 35.161 191.798 30.9099 191.798 30.9099Z" fill="#2564BF"/>
<path d="M191.946 56.9995V47.5449H194.231V51.3397H197.957V47.5449H200.237V56.9995H197.957V53.2001H194.231V56.9995H191.946Z" fill="#323242"/>
<path d="M184.138 50.9707H181.83C181.799 50.7337 181.736 50.5198 181.641 50.329C181.546 50.1382 181.419 49.9751 181.262 49.8397C181.105 49.7042 180.919 49.6011 180.704 49.5304C180.491 49.4565 180.256 49.4196 179.997 49.4196C179.539 49.4196 179.143 49.5319 178.811 49.7566C178.482 49.9812 178.228 50.3059 178.049 50.7306C177.874 51.1554 177.786 51.6693 177.786 52.2725C177.786 52.9004 177.875 53.4267 178.054 53.8514C178.235 54.273 178.489 54.5916 178.816 54.807C179.145 55.0194 179.534 55.1255 179.984 55.1255C180.236 55.1255 180.465 55.0932 180.671 55.0286C180.881 54.964 181.064 54.8701 181.221 54.747C181.381 54.6208 181.512 54.4685 181.613 54.29C181.718 54.1084 181.79 53.9037 181.83 53.676L184.138 53.6898C184.098 54.1084 183.977 54.5208 183.774 54.927C183.574 55.3333 183.298 55.7041 182.947 56.0396C182.597 56.372 182.169 56.6367 181.664 56.8336C181.162 57.0306 180.587 57.1291 179.937 57.1291C179.082 57.1291 178.316 56.9413 177.638 56.5659C176.964 56.1873 176.432 55.6364 176.041 54.9132C175.65 54.1899 175.455 53.3097 175.455 52.2725C175.455 51.2323 175.653 50.3506 176.05 49.6273C176.447 48.9041 176.984 48.3547 177.662 47.9792C178.339 47.6038 179.097 47.416 179.937 47.416C180.51 47.416 181.039 47.496 181.526 47.6561C182.012 47.813 182.44 48.0439 182.809 48.3485C183.178 48.6502 183.478 49.021 183.709 49.4611C183.94 49.9012 184.083 50.4044 184.138 50.9707Z" fill="#323242"/>
<path d="M167.62 47.5449V56.9995H165.681L161.918 51.5428H161.858V56.9995H159.573V47.5449H161.54L165.26 52.9924H165.339V47.5449H167.62Z" fill="#323242"/>
<path d="M145.05 56.9995V47.5449H151.642V49.4007H147.335V51.3397H151.305V53.2001H147.335V55.1436H151.642V56.9995H145.05Z" fill="#323242"/>
<path d="M129.917 56.9995V47.5449H133.859C134.567 47.5449 135.16 47.6449 135.637 47.845C136.117 48.045 136.477 48.3251 136.717 48.6852C136.96 49.0453 137.082 49.4623 137.082 49.9363C137.082 50.2963 137.006 50.618 136.855 50.9011C136.705 51.1812 136.497 51.4135 136.232 51.5982C135.967 51.7828 135.661 51.9121 135.313 51.986V52.0783C135.695 52.0968 136.047 52.1999 136.371 52.3876C136.697 52.5753 136.958 52.8369 137.155 53.1724C137.352 53.5048 137.451 53.8987 137.451 54.3542C137.451 54.862 137.322 55.316 137.063 55.7161C136.805 56.1131 136.431 56.427 135.941 56.6578C135.452 56.8856 134.858 56.9995 134.159 56.9995H129.917ZM132.202 55.1575H133.615C134.11 55.1575 134.475 55.0636 134.709 54.8759C134.946 54.6882 135.064 54.4266 135.064 54.0911C135.064 53.848 135.007 53.6387 134.893 53.4632C134.779 53.2847 134.618 53.1478 134.409 53.0524C134.199 52.9539 133.948 52.9047 133.656 52.9047H132.202V55.1575ZM132.202 51.432H133.467C133.716 51.432 133.938 51.3904 134.132 51.3074C134.325 51.2243 134.476 51.1042 134.584 50.9473C134.695 50.7903 134.75 50.601 134.75 50.3794C134.75 50.0624 134.638 49.8132 134.413 49.6316C134.189 49.45 133.885 49.3592 133.504 49.3592H132.202V51.432Z" fill="#323242"/>
<path d="M114.31 49.4007V47.5449H122.301V49.4007H119.434V56.9995H117.181V49.4007H114.31Z" fill="#323242"/>
<path d="M104.647 50.3798C104.617 50.0413 104.48 49.7781 104.236 49.5904C103.996 49.3996 103.653 49.3042 103.207 49.3042C102.912 49.3042 102.665 49.3426 102.468 49.4196C102.271 49.4965 102.124 49.6027 102.025 49.7381C101.927 49.8704 101.876 50.0228 101.873 50.1951C101.867 50.3367 101.894 50.4614 101.956 50.5691C102.021 50.6768 102.113 50.7722 102.233 50.8553C102.356 50.9353 102.504 51.0061 102.676 51.0676C102.848 51.1292 103.042 51.1831 103.258 51.2292L104.07 51.4139C104.538 51.5154 104.95 51.6509 105.307 51.8201C105.668 51.9894 105.969 52.191 106.212 52.4249C106.459 52.6588 106.645 52.9281 106.771 53.2328C106.897 53.5375 106.962 53.8791 106.965 54.2576C106.962 54.8547 106.811 55.3671 106.512 55.7949C106.214 56.2227 105.785 56.5505 105.224 56.7782C104.667 57.006 103.995 57.1199 103.207 57.1199C102.416 57.1199 101.727 57.0014 101.139 56.7644C100.551 56.5274 100.094 56.1673 99.7677 55.6841C99.4415 55.2009 99.2738 54.59 99.2645 53.8514H101.453C101.471 54.1561 101.553 54.41 101.697 54.6131C101.842 54.8162 102.041 54.9701 102.293 55.0748C102.548 55.1794 102.844 55.2317 103.179 55.2317C103.487 55.2317 103.749 55.1902 103.964 55.1071C104.183 55.024 104.35 54.9086 104.467 54.7608C104.584 54.6131 104.644 54.4438 104.647 54.253C104.644 54.0745 104.589 53.9222 104.481 53.796C104.373 53.6667 104.207 53.5559 103.983 53.4636C103.761 53.3682 103.478 53.2805 103.133 53.2005L102.145 52.9696C101.327 52.7819 100.682 52.4788 100.211 52.0602C99.74 51.6386 99.5061 51.0692 99.5092 50.3521C99.5061 49.7673 99.6631 49.2549 99.9801 48.8148C100.297 48.3747 100.736 48.0315 101.296 47.7853C101.856 47.5391 102.495 47.416 103.212 47.416C103.944 47.416 104.58 47.5407 105.118 47.79C105.66 48.0362 106.08 48.3824 106.379 48.8287C106.677 49.2749 106.829 49.792 106.836 50.3798H104.647Z" fill="#323242"/>
<path d="M85.0134 56.9995V47.5449H91.6058V49.4007H87.2986V51.3397H91.2688V53.2001H87.2986V55.1436H91.6058V56.9995H85.0134Z" fill="#323242"/>
<path d="M69.4062 49.4007V47.5449H77.3974V49.4007H74.5305V56.9995H72.2777V49.4007H69.4062Z" fill="#323242"/>
</g>
<defs>
<clipPath id="clip0_325_1506">
<rect width="212.242" height="72" fill="white"/>
</clipPath>
</defs>
</svg>
